<?xml version="1.0" encoding="UTF-8"?>
<svg width="48px" height="41px" viewBox="0 0 48 41" version="1.1" xmlns="http://www.w3.org/2000/svg" xmlns:xlink="http://www.w3.org/1999/xlink">
    <!-- Generator: Sketch 55.2 (78181) - https://sketchapp.com -->
    <title>Combined Shape</title>
    <desc>Created with Sketch.</desc>
    <defs>
        <linearGradient x1="100%" y1="85.7988166%" x2="3.05987925%" y2="16.3919845%" id="linearGradient-1">
            <stop stop-color="#00D3A7" offset="0%"></stop>
            <stop stop-color="#02C0D0" offset="100%"></stop>
        </linearGradient>
    </defs>
    <g id="Crypto-currency-Info" stroke="none" stroke-width="1" fill="none" fill-rule="evenodd">
        <g id="blog-details" transform="translate(-652.000000, -3433.000000)" fill="url(#linearGradient-1)">
            <g id="Quote" transform="translate(595.000000, 3394.000000)">
                <g id="Icon" transform="translate(57.000000, 39.000000)">
                    <path d="M40.6153846,18.4615385 C44.6916923,18.4615385 48,21.7661538 48,25.8461538 L48,33.2270769 C48,37.3070769 44.6916923,40.6153846 40.6153846,40.6153846 L33.2307692,40.6153846 C29.1507692,40.6153846 25.8461538,37.3070769 25.8461538,33.2270769 L25.8461538,18.4615385 C25.8461538,8.26338462 34.1095385,7.10542736e-14 44.3076923,7.10542736e-14 C46.3458462,7.10542736e-14 48,1.65046154 48,3.69230769 C48,5.73046154 46.3458462,7.38092308 44.3076923,7.38092308 C38.1895385,7.38092308 33.2307692,12.3433846 33.2307692,18.4615385 L40.6153846,18.4615385 Z M14.7692308,18.4615385 C18.8455385,18.4615385 22.1538462,21.7661538 22.1538462,25.8461538 L22.1538462,33.2270769 C22.1538462,37.3070769 18.8455385,40.6153846 14.7692308,40.6153846 L7.38461538,40.6153846 C3.30461538,40.6153846 -1.12265752e-12,37.3070769 -1.12265752e-12,33.2270769 L-1.12265752e-12,18.4615385 C-1.12265752e-12,8.26338462 8.26338462,7.10542736e-14 18.4615385,7.10542736e-14 C20.4996923,7.10542736e-14 22.1538462,1.65046154 22.1538462,3.69230769 C22.1538462,5.73046154 20.4996923,7.38092308 18.4615385,7.38092308 C12.3433846,7.38092308 7.38461538,12.3433846 7.38461538,18.4615385 L14.7692308,18.4615385 Z" id="Combined-Shape"></path>
                </g>
            </g>
        </g>
    </g>
</svg>